<svg width="18" height="20" viewBox="0 0 18 20" fill="none" xmlns="http://www.w3.org/2000/svg">
<path fill-rule="evenodd" clip-rule="evenodd" d="M5.04985 6C5.0175 6.30736 5 6.63997 5 7.00002C5 7.5523 4.55228 8.00002 4 8.00002C3.44772 8.00002 3 7.5523 3 7.00002C3 6.74283 3.00769 6.49448 3.0226 6.25469C2.41236 6.59717 2 7.25043 2 8V16C2 17.1046 2.89543 18 4 18H14C15.1046 18 16 17.1046 16 16V8C16 7.25043 15.5876 6.59717 14.9774 6.25469C14.9923 6.49448 15 6.74283 15 7.00002C15 7.5523 14.5523 8.00002 14 8.00002C13.4477 8.00002 13 7.5523 13 7.00002C13 6.63997 12.9825 6.30736 12.9501 6H5.04985ZM5.59446 4H12.4055C12.05 3.29614 11.5848 2.86792 11.1535 2.59549C10.2176 2.00441 9.2114 2 9 2C8.7886 2 7.78238 2.00441 6.8465 2.5955C6.41516 2.86793 5.95 3.29615 5.59446 4ZM14.5766 4.04126C16.5125 4.32075 18 5.98667 18 8V16C18 18.2091 16.2091 20 14 20H4C1.79086 20 0 18.2091 0 16V8C0 5.98666 1.48747 4.32075 3.4234 4.04125C3.91757 2.52102 4.7937 1.52652 5.7785 0.904528C7.21086 -0.000125051 8.69736 -2.06536e-05 8.99585 2.07994e-07H9.00415C9.30266 -2.07728e-05 10.7891 -0.000125468 12.2215 0.904519C13.2063 1.52651 14.0824 2.52102 14.5766 4.04126Z" fill="white"/>
</svg>
