<svg width="20" height="19" viewBox="0 0 20 19" fill="none" xmlns="http://www.w3.org/2000/svg">
<path d="M8.57324 0.671671C8.88454 -0.223889 10.1511 -0.223891 10.4624 0.67167L12.1107 5.41371C12.248 5.80878 12.6167 6.07666 13.0349 6.08518L18.0542 6.18746C19.0021 6.20678 19.3935 7.41133 18.638 7.98413L14.6374 11.0172C14.3041 11.2699 14.1633 11.7033 14.2844 12.1036L15.7382 16.9089C16.0127 17.8164 14.9881 18.5608 14.2098 18.0193L10.089 15.1517C9.74567 14.9128 9.28994 14.9128 8.94663 15.1517L4.82579 18.0193C4.04755 18.5608 3.0229 17.8164 3.29746 16.9089L4.75123 12.1036C4.87235 11.7033 4.73152 11.2699 4.39822 11.0172L0.397631 7.98413C-0.357901 7.41133 0.0334784 6.20678 0.981403 6.18746L6.00072 6.08518C6.41889 6.07666 6.78758 5.80879 6.92491 5.41372L8.57324 0.671671Z" fill="#9CCC65"/>
</svg>
