<svg width="20" height="16" viewBox="0 0 20 16" fill="none" xmlns="http://www.w3.org/2000/svg">
<path fill-rule="evenodd" clip-rule="evenodd" d="M9 1C9 0.447715 9.44772 0 10 0H19C19.5523 0 20 0.447715 20 1C20 1.55228 19.5523 2 19 2H10C9.44772 2 9 1.55228 9 1Z" fill="white"/>
<path fill-rule="evenodd" clip-rule="evenodd" d="M5 8C5 7.44772 5.44772 7 6 7H19C19.5523 7 20 7.44772 20 8C20 8.55228 19.5523 9 19 9H6C5.44772 9 5 8.55228 5 8Z" fill="white"/>
<path fill-rule="evenodd" clip-rule="evenodd" d="M0 15C0 14.4477 0.447715 14 1 14H19C19.5523 14 20 14.4477 20 15C20 15.5523 19.5523 16 19 16H1C0.447715 16 0 15.5523 0 15Z" fill="white"/>
</svg>
